<svg width="1005" height="1026" viewBox="0 0 1005 1026" fill="none" xmlns="http://www.w3.org/2000/svg">
<path d="M512.236 207.112C566.498 165.202 645.904 189.805 666.965 255.053L690.149 326.879C696.838 347.603 709.925 365.674 727.528 378.496L792.075 425.511C845.219 464.219 846.564 543.023 794.771 583.522L726.381 636.999C709.926 649.866 697.772 667.433 691.531 687.368L666.406 767.634C646.242 832.048 568.946 857.841 514.141 818.445L454.994 775.927C436.837 762.875 414.927 756.087 392.572 756.586L319.747 758.214C252.268 759.722 203.096 694.744 222.885 630.214L247.543 549.803C253.667 529.832 253.574 508.471 247.276 488.554L221.103 405.777C201.282 343.09 246.947 278.851 312.666 276.971L392.488 274.688C414.257 274.065 435.268 266.559 452.503 253.247L512.236 207.112Z" stroke="white" stroke-opacity="0.08" stroke-width="4"/>
<path d="M498.865 250.347C553.117 208.48 632.472 233.067 653.549 298.274L668.318 343.966C675.015 364.683 688.104 382.745 705.706 395.559L748.467 426.687C801.644 465.398 802.983 544.244 751.152 584.739L704.578 621.127C688.106 633.996 675.94 651.573 669.695 671.521L652.936 725.057C632.776 789.46 555.5 815.259 500.693 775.883L463.304 749.021C445.159 735.985 423.268 729.202 400.931 729.695L354.904 730.712C287.435 732.202 238.283 667.231 258.068 602.712L274.514 549.079C280.642 529.095 280.545 507.718 274.235 487.79L256.393 431.443C236.538 368.737 282.223 304.461 347.971 302.598L400.84 301.1C422.604 300.483 443.612 292.986 460.849 279.684L498.865 250.347Z" stroke="white" stroke-opacity="0.08" stroke-width="4"/>
<path d="M480.163 310.607C534.428 268.687 613.846 293.294 634.903 358.552L637.802 367.536C644.489 388.262 657.575 406.336 675.178 419.159L687.538 428.162C740.674 466.87 742.019 545.664 690.236 586.164L673.832 598.994C657.38 611.861 645.229 629.425 638.989 649.357L633.844 665.794C613.68 730.21 536.38 756.003 481.575 716.601L474.874 711.783C456.715 698.728 434.8 691.938 412.441 692.439L404.19 692.624C336.708 694.137 287.533 629.157 307.322 564.625L312.371 548.158C318.495 528.19 318.403 506.833 312.108 486.918L305.831 467.06C286.018 404.377 331.678 340.148 397.391 338.264L412.676 337.826C434.446 337.201 455.457 329.693 472.692 316.379L480.163 310.607Z" stroke="white" stroke-opacity="0.08" stroke-width="4"/>
<path d="M480.543 359.646C524.852 325.482 589.633 345.554 606.864 398.785C612.389 415.853 623.323 430.832 637.823 441.382C682.848 474.139 684.544 541.306 640.693 575.536L637.554 577.986C623.405 589.032 612.953 604.124 607.591 621.255L605.954 626.485C589.578 678.798 526.814 699.76 482.287 667.789C467.424 657.116 449.496 651.561 431.202 651.96C376.399 653.156 336.482 600.379 352.553 547.971L354.159 542.732C359.422 525.57 359.335 507.213 353.909 490.102L352.705 486.306C335.89 433.279 375.265 378.838 430.923 377.276C448.848 376.773 466.336 370.6 480.543 359.646Z" stroke="white" stroke-opacity="0.08" stroke-width="4"/>
<path d="M487.655 408.055C517.819 384.847 561.869 398.496 573.628 434.692C577.484 446.564 585.094 456.973 595.185 464.305C625.854 486.586 626.97 532.303 597.102 555.568L595.07 557.151C585.222 564.822 577.948 575.314 574.218 587.227L573.159 590.612C562.007 626.237 519.273 640.526 488.936 618.773C478.602 611.363 466.145 607.503 453.432 607.772C416.11 608.561 388.941 572.615 399.885 536.925L400.925 533.534C404.584 521.6 404.517 508.833 400.731 496.938L399.95 494.483C388.469 458.406 415.237 421.328 453.131 420.291C465.601 419.949 477.762 415.666 487.655 408.055Z" stroke="white" stroke-opacity="0.08" stroke-width="4"/>
<path d="M493.701 448.46C511.977 434.387 538.678 442.66 545.795 464.601C548.232 472.114 553.044 478.699 559.426 483.338C578.029 496.862 578.703 524.593 560.604 538.704L559.311 539.712C553.088 544.564 548.492 551.197 546.135 558.727L545.46 560.881C538.706 582.459 512.82 591.11 494.449 577.929C487.909 573.237 480.024 570.794 471.977 570.966C449.371 571.451 432.912 549.68 439.541 528.063L440.202 525.905C442.516 518.361 442.475 510.291 440.085 502.771L439.589 501.209C432.638 479.337 448.873 456.845 471.864 456.209C479.751 455.99 487.444 453.279 493.701 448.46Z" stroke="white" stroke-opacity="0.08" stroke-width="4"/>
</svg>
