<svg width="68" height="60" viewBox="0 0 68 60" fill="none" xmlns="http://www.w3.org/2000/svg">
<path d="M64 34C66.2091 34 68 32.2091 68 30C68 27.7909 66.2091 26 64 26L64 34ZM1.17157 27.1716C-0.390526 28.7337 -0.390526 31.2663 1.17157 32.8284L26.6274 58.2843C28.1895 59.8464 30.7222 59.8464 32.2843 58.2843C33.8464 56.7222 33.8464 54.1895 32.2843 52.6274L9.65685 30L32.2843 7.37258C33.8464 5.81048 33.8464 3.27782 32.2843 1.71573C30.7222 0.153628 28.1895 0.153628 26.6274 1.71573L1.17157 27.1716ZM64 26L4 26L4 34L64 34L64 26Z" fill="black"/>
</svg>
