<svg width="599" height="1246" viewBox="0 0 599 1246" fill="none" xmlns="http://www.w3.org/2000/svg">
<path d="M416.011 285.717C436.27 220.216 515.369 194.642 570.14 235.883L672.019 312.595C689.416 325.695 710.518 332.943 732.292 333.299L863.049 335.436C928.786 336.51 975.235 400.184 956.183 463.11L915.939 596.034C909.886 616.027 910.055 637.388 916.424 657.282L958.149 787.63C978.727 851.913 930.356 917.488 862.863 916.807L739.114 915.558C716.754 915.333 694.929 922.39 676.934 935.663L577.34 1009.12C523.021 1049.19 445.416 1024.34 424.464 960.182L381.98 830.08C375.496 810.223 363.128 792.807 346.516 780.142L236.069 695.939C183.785 656.078 184.163 577.264 236.829 537.907L341.584 459.624C359.028 446.588 371.892 428.357 378.327 407.552L416.011 285.717Z" stroke="black" stroke-opacity="0.08" stroke-width="4"/>
<path d="M432.839 337.691C453.116 272.231 532.163 246.673 586.925 287.871L662.341 344.61C679.74 357.699 700.839 364.939 722.608 365.289L820.854 366.868C886.619 367.925 933.088 431.637 914.003 494.581L883.399 595.515C877.334 615.519 877.499 636.895 883.871 656.803L915.293 754.962C935.867 819.234 887.514 884.802 820.033 884.139L728.637 883.24C706.297 883.021 684.49 890.071 666.507 903.329L592.937 957.564C538.617 997.608 461.031 972.759 440.082 908.608L408.09 810.634C401.601 790.763 389.22 773.337 372.591 760.67L288.69 696.759C236.367 656.903 236.74 578.046 289.438 538.687L368.162 479.889C385.606 466.86 398.473 448.639 404.915 427.841L432.839 337.691Z" stroke="black" stroke-opacity="0.08" stroke-width="4"/>
<path d="M444.236 372.937C464.512 307.477 543.56 281.919 598.321 323.117L655.699 366.285C673.098 379.374 694.197 386.614 715.966 386.964L792.123 388.188C857.889 389.245 904.358 452.957 885.273 515.901L861.22 595.228C855.155 615.232 855.32 636.608 861.692 656.516L886.141 732.893C906.715 797.166 858.363 862.734 790.881 862.071L721.573 861.389C699.232 861.17 677.426 868.22 659.442 881.478L603.652 922.606C549.332 962.65 471.745 937.801 450.797 873.65L425.904 797.417C419.415 777.546 407.034 760.12 390.405 747.453L324.465 697.223C272.141 657.367 272.515 578.51 325.213 539.151L386.237 493.573C403.682 480.544 416.548 462.323 422.99 441.525L444.236 372.937Z" stroke="black" stroke-opacity="0.08" stroke-width="4"/>
<path d="M456.223 410.104C476.478 344.593 555.588 319.015 610.363 360.267L648.595 389.061C665.992 402.163 687.094 409.413 708.87 409.77L761.733 410.638C827.465 411.716 873.908 475.381 854.865 538.303L837.699 595.019C831.649 615.009 831.819 636.366 838.187 656.257L855.31 709.749C875.888 774.034 827.513 839.612 760.018 838.926L714.193 838.461C691.83 838.234 670 845.292 652.002 858.569L615.124 885.774C560.806 925.844 483.196 901.001 462.243 836.837L444.809 783.445C438.326 763.591 425.96 746.177 409.352 733.513L362.232 697.582C309.956 657.72 310.336 578.915 362.994 539.559L405.343 507.908C422.788 494.869 435.651 476.637 442.084 455.83L456.223 410.104Z" stroke="black" stroke-opacity="0.08" stroke-width="4"/>
<path d="M468.169 447.056C488.425 381.545 567.535 355.967 622.309 397.219L641.644 411.78C659.041 424.882 680.143 432.133 701.919 432.49L731.647 432.978C797.378 434.056 843.821 497.721 824.778 560.643L814.467 594.71C808.417 614.7 808.587 636.057 814.954 655.949L824.767 686.604C845.346 750.889 796.971 816.467 729.476 815.781L706.785 815.551C684.421 815.324 662.591 822.382 644.594 835.659L626.333 849.13C572.016 889.2 494.405 864.356 473.453 800.192L463.461 769.594C456.978 749.74 444.613 732.326 428.005 719.662L399.701 698.08C347.425 658.217 347.805 579.413 400.463 540.057L424.278 522.258C441.723 509.219 454.586 490.987 461.019 470.18L468.169 447.056Z" stroke="black" stroke-opacity="0.08" stroke-width="4"/>
<path d="M481.877 486.588C501.962 421.839 580.151 396.559 634.341 437.293C651.57 450.243 672.459 457.402 694.01 457.743L698.37 457.812C764.164 458.852 810.654 522.601 791.534 585.565L788.904 594.225C782.826 614.24 782.987 635.632 789.364 655.554L791.687 662.812C811.936 726.07 764.357 790.607 697.94 789.972C675.953 789.762 654.493 796.701 636.791 809.743C583.317 849.142 506.961 824.675 486.344 761.536L483.978 754.292C477.485 734.408 465.091 716.971 448.446 704.303L441.244 698.822C388.882 658.97 389.249 580.07 441.981 540.708L445.475 538.1C462.747 525.207 475.491 507.174 481.877 486.588Z" stroke="black" stroke-opacity="0.08" stroke-width="4"/>
<path d="M500.47 506.129C517.628 450.819 584.418 429.224 630.708 464.02C645.528 475.159 663.676 481.316 682.204 481.609C739.825 482.519 781.265 538.361 764.536 593.453L763.339 597.394C757.949 615.144 758.091 634.114 763.746 651.781L765.474 657.179C782.771 711.214 742.129 766.342 685.396 765.8C666.488 765.619 648.033 771.586 632.81 782.802C587.133 816.456 521.909 795.557 504.298 741.623L502.538 736.235C496.78 718.602 485.789 703.139 471.028 691.904L467.751 689.41C421.934 654.541 422.839 585.008 469.02 550.536C483.869 539.452 494.977 523.835 500.47 506.129Z" stroke="black" stroke-opacity="0.08" stroke-width="4"/>
<path d="M522.506 529.417C536.242 485.3 589.514 468.077 626.477 495.8C638.455 504.784 653.106 509.743 668.068 509.969C714.071 510.665 747.115 555.264 733.715 599.227L732.809 602.2C728.442 616.526 728.549 631.844 733.115 646.109L734.419 650.184C748.237 693.349 715.789 737.392 670.468 736.989C655.216 736.853 640.331 741.666 628.045 750.706C591.539 777.565 539.448 760.855 525.379 717.771L524.051 713.704C519.401 699.466 510.52 686.986 498.592 677.927L496.117 676.048C459.516 648.252 460.195 592.749 497.083 565.253C509.081 556.31 518.055 543.712 522.506 529.417Z" stroke="black" stroke-opacity="0.08" stroke-width="4"/>
<path d="M540.63 548.439C551.502 513.523 593.664 499.891 622.919 521.834C632.541 529.05 644.308 533.033 656.325 533.215C692.749 533.765 718.906 569.077 708.299 603.876L707.576 606.247C704.07 617.751 704.155 630.052 707.822 641.506L708.862 644.756C719.797 678.918 694.117 713.775 658.249 713.456C645.998 713.348 634.041 717.213 624.172 724.474C595.28 745.732 554.054 732.507 542.919 698.409L541.86 695.165C538.127 683.733 530.995 673.71 521.417 666.436L519.443 664.937C490.471 642.935 491.004 598.994 520.21 577.224C529.846 570.041 537.055 559.923 540.63 548.439Z" stroke="black" stroke-opacity="0.08" stroke-width="4"/>
<path d="M556.527 565.089C564.874 538.241 597.295 527.758 619.78 544.638C627.33 550.307 636.567 553.435 645.998 553.581C674.015 554.013 694.135 581.17 685.992 607.928L685.416 609.821C682.669 618.848 682.738 628.499 685.615 637.486L686.445 640.079C694.848 666.329 675.111 693.112 647.549 692.859C637.928 692.771 628.538 695.807 620.789 701.512C598.593 717.852 566.912 707.694 558.356 681.493L557.511 678.905C554.582 669.935 548.988 662.07 541.476 656.36L539.901 655.163C517.634 638.237 518.046 604.441 540.507 587.689C548.068 582.049 553.725 574.105 556.527 565.089Z" stroke="black" stroke-opacity="0.08" stroke-width="4"/>
<path d="M573.554 582.97C579.214 564.765 601.197 557.657 616.444 569.103C621.782 573.111 628.311 575.322 634.976 575.424C653.996 575.717 667.644 594.153 662.121 612.303L661.722 613.615C659.781 619.992 659.83 626.809 661.862 633.157L662.437 634.955C668.134 652.752 654.753 670.911 636.067 670.739C629.265 670.677 622.626 672.823 617.148 676.856C602.099 687.935 580.62 681.048 574.819 663.284L574.233 661.49C572.164 655.153 568.213 649.598 562.906 645.564L561.815 644.735C546.711 633.254 546.982 610.317 562.23 598.945C567.574 594.959 571.572 589.344 573.554 582.97Z" stroke="black" stroke-opacity="0.08" stroke-width="4"/>
</svg>
